HIERARCHY
ROOT hip
{
	OFFSET 0.000000 0.000000 0.000000
	CHANNELS 6 Xposition Yposition Zposition Xrotation Zrotation Yrotation 
	JOINT abdomen
	{
		OFFSET 0.000000 3.422050 0.000000
		CHANNELS 3 Xrotation Zrotation Yrotation 
		JOINT chest
		{
			OFFSET 0.000000 8.486693 -0.684411
			CHANNELS 3 Xrotation Zrotation Yrotation 
			JOINT neck
			{
				OFFSET 0.000000 10.266162 -0.273764
				CHANNELS 3 Xrotation Zrotation Yrotation 
				JOINT head
				{
					OFFSET 0.000000 3.148285 0.000000
					CHANNELS 3 Xrotation Zrotation Yrotation 
					End Site
					{
						OFFSET 0.000000 3.148289 0.000000
					}
				}
			}
			JOINT lCollar
			{
				OFFSET 3.422053 6.707223 -0.821293
				CHANNELS 3 Yrotation Zrotation Xrotation 
				JOINT lShldr
				{
					OFFSET 3.285171 0.000000 0.000000
					CHANNELS 3 Zrotation Yrotation Xrotation 
					JOINT lForeArm
					{
						OFFSET 10.129278 0.000000 0.000000
						CHANNELS 3 Yrotation Zrotation Xrotation 
						JOINT lHand
						{
							OFFSET 8.486692 0.000000 0.000000
							CHANNELS 3 Zrotation Yrotation Xrotation 
							End Site
							{
								OFFSET 4.106464 0.000000 0.000000
							}
						}
					}
				}
			}
			JOINT rCollar
			{
				OFFSET -3.558935 6.707223 -0.821293
				CHANNELS 3 Yrotation Zrotation Xrotation 
				JOINT rShldr
				{
					OFFSET -3.148289 0.000000 0.000000
					CHANNELS 3 Zrotation Yrotation Xrotation 
					JOINT rForeArm
					{
						OFFSET -10.266159 0.000000 0.000000
						CHANNELS 3 Yrotation Zrotation Xrotation 
						JOINT rHand
						{
							OFFSET -8.349810 0.000000 0.000000
							CHANNELS 3 Zrotation Yrotation Xrotation 
							End Site
							{
								OFFSET -4.106464 0.000000 0.000000
							}
						}
					}
				}
			}
		}
	}
	JOINT lThigh
	{
		OFFSET 5.338403 -1.642589 1.368821
		CHANNELS 3 Xrotation Zrotation Yrotation 
		JOINT lShin
		{
			OFFSET -2.053232 -20.121670 0.000000
			CHANNELS 3 Xrotation Zrotation Yrotation 
			JOINT lFoot
			{
				OFFSET 0.000000 -19.300380 -1.231939
				CHANNELS 3 Xrotation Yrotation Zrotation 
				End Site
				{
					OFFSET 0.000000 -2.463878 4.653993
				}
			}
		}
	}
	JOINT rThigh
	{
		OFFSET -5.338403 -1.642589 1.368821
		CHANNELS 3 Xrotation Zrotation Yrotation 
		JOINT rShin
		{
			OFFSET 2.053232 -20.121670 0.000000
			CHANNELS 3 Xrotation Zrotation Yrotation 
			JOINT rFoot
			{
				OFFSET 0.000000 -19.300380 -1.231939
				CHANNELS 3 Xrotation Yrotation Zrotation 
				End Site
				{
					OFFSET 0.000000 -2.463878 4.653993
				}
			}
		}
	}
}
MOTION
Frames:	13
Frame Time:	0.033333
0.000000 43.528519 0.000000 0.000000 0.000000 0.000000 0.000000 0.000000 0.000000 0.000000 0.000000 0.000000 0.000000 0.000000 0.000000 0.000000 0.000000 0.000000 0.000000 0.000000 0.000000 0.000000 0.000000 0.000000 0.000000 0.000000 0.000000 0.000000 0.000000 0.000000 0.000000 0.000000 0.000000 0.000000 0.000000 0.000000 0.000000 0.000000 0.000000 0.000000 0.000000 0.000000 0.000000 0.000000 0.000000 0.000000 0.000000 0.000000 0.000000 0.000000 0.000000 0.000000 0.000000 0.000000 0.000000 0.000000 0.000000 0.000000 0.000000 0.000000 
0.000000 42.264259 0.000000 -1.154762 -0.392857 0.345238 -9.000000 0.000000 0.000000 -10.000000 0.000000 0.000000 0.000000 0.000000 0.000000 -27.000000 0.000000 0.000000 0.000000 0.000000 0.000000 6.000000 -75.000000 -15.000000 -112.000000 0.000000 0.000000 0.000000 0.000000 -39.000000 0.000000 0.000000 0.000000 51.000000 63.000000 30.000000 135.000000 5.000000 -20.000000 0.000000 -7.000000 -24.000000 -5.000000 0.000000 0.000000 10.000000 0.000000 0.000000 -14.000000 0.000000 0.000000 -5.000000 0.000000 0.000000 10.000000 0.000000 0.000000 -14.000000 0.000000 0.000000 
0.000000 41.000000 0.000000 -2.309524 -0.785714 0.690476 -6.388889 0.000000 0.000000 -8.333333 0.000000 0.000000 0.000000 0.000000 0.000000 -27.000000 -0.361446 0.000000 0.000000 0.000000 0.000000 5.708333 -75.270836 -14.729167 -112.236839 0.131579 -0.526316 0.000000 0.000000 -38.168674 0.000000 0.000000 0.000000 50.746986 63.469879 30.000000 134.789474 4.736842 -19.736841 0.000000 -7.000000 -24.000000 -5.888889 0.000000 0.000000 11.111111 0.000000 0.000000 -13.000000 0.000000 0.000000 -5.888889 0.000000 0.000000 11.111111 0.000000 0.000000 -13.000000 0.000000 0.000000 
0.235294 40.882355 0.000000 -2.585434 -1.151260 1.002801 -3.777778 0.000000 0.000000 -6.666667 0.000000 0.000000 0.000000 0.000000 0.000000 -27.000000 -0.722892 0.000000 0.000000 0.000000 0.000000 5.416667 -75.541664 -14.458333 -112.473686 0.263158 -1.052632 0.000000 0.000000 -37.337349 0.000000 0.000000 0.000000 50.493977 63.939758 30.000000 134.578949 4.473684 -19.473684 0.000000 -7.000000 -24.000000 -6.777778 0.000000 0.000000 12.222222 0.000000 0.000000 -12.647058 0.000000 0.000000 -6.777778 0.000000 0.000000 12.222222 0.000000 0.000000 -12.411765 0.000000 0.000000 
0.470588 40.764706 0.000000 -2.861345 -1.516807 1.315126 -1.166667 0.000000 0.000000 -5.000000 0.000000 0.000000 0.000000 0.000000 0.000000 -27.000000 -1.084337 0.000000 0.000000 0.000000 0.000000 5.125000 -75.812500 -14.187500 -112.710526 0.394737 -1.578947 0.000000 0.000000 -36.506023 0.000000 0.000000 0.000000 50.240963 64.409637 30.000000 134.368423 4.210526 -19.210526 0.000000 -7.000000 -24.000000 -7.666667 0.000000 0.000000 13.333333 0.000000 0.000000 -12.294118 0.000000 0.000000 -7.666667 0.000000 0.000000 13.333333 0.000000 0.000000 -11.823529 0.000000 0.000000 
0.705882 40.647060 0.000000 -3.137255 -1.882353 1.627451 1.444444 0.000000 0.000000 -3.333333 0.000000 0.000000 0.000000 0.000000 0.000000 -27.000000 -1.445783 0.000000 0.000000 0.000000 0.000000 4.833333 -76.083336 -13.916667 -112.947365 0.526316 -2.105263 0.000000 0.000000 -35.674698 0.000000 0.000000 0.000000 49.987953 64.879517 30.000000 134.157898 3.947368 -18.947369 0.000000 -7.000000 -24.000000 -8.555555 0.000000 0.000000 14.444445 0.000000 0.000000 -11.941176 0.000000 0.000000 -8.555555 0.000000 0.000000 14.444445 0.000000 0.000000 -11.235294 0.000000 0.000000 
0.941176 40.529411 0.000000 -3.413165 -2.247899 1.939776 4.055555 0.000000 0.000000 -1.666667 0.000000 0.000000 0.000000 0.000000 0.000000 -27.000000 -1.807229 0.000000 0.000000 0.000000 0.000000 4.541667 -76.354164 -13.645833 -113.184212 0.657895 -2.631579 0.000000 0.000000 -34.843372 0.000000 0.000000 0.000000 49.734940 65.349396 30.000000 133.947372 3.684211 -18.684210 0.000000 -7.000000 -24.000000 -9.444445 0.000000 0.000000 15.555555 0.000000 0.000000 -11.588235 0.000000 0.000000 -9.444445 0.000000 0.000000 15.555555 0.000000 0.000000 -10.647058 0.000000 0.000000 
1.176471 40.411766 0.000000 -3.689076 -2.613445 2.252101 6.666667 0.000000 0.000000 0.000000 0.000000 0.000000 0.000000 0.000000 0.000000 -27.000000 -2.168675 0.000000 0.000000 0.000000 0.000000 4.250000 -76.625000 -13.375000 -113.421051 0.789474 -3.157895 0.000000 0.000000 -34.012047 0.000000 0.000000 0.000000 49.481926 65.819275 30.000000 133.736847 3.421053 -18.421053 0.000000 -7.000000 -24.000000 -10.333333 0.000000 0.000000 16.666666 0.000000 0.000000 -11.235294 0.000000 0.000000 -10.333333 0.000000 0.000000 16.666666 0.000000 0.000000 -10.058824 0.000000 0.000000 
1.411765 40.294117 0.000000 -3.964986 -2.978992 2.564426 9.277778 0.000000 0.000000 1.666667 0.000000 0.000000 0.000000 0.000000 0.000000 -27.000000 -2.530120 0.000000 0.000000 0.000000 0.000000 3.958333 -76.895836 -13.104167 -113.657898 0.921053 -3.684211 0.000000 0.000000 -33.180721 0.000000 0.000000 0.000000 49.228916 66.289154 30.000000 133.526321 3.157895 -18.157894 0.000000 -7.000000 -24.000000 -11.222222 0.000000 0.000000 17.777779 0.000000 0.000000 -10.882353 0.000000 0.000000 -11.222222 0.000000 0.000000 17.777779 0.000000 0.000000 -9.470589 0.000000 0.000000 
1.647059 40.176472 0.000000 -4.240896 -3.344538 2.876751 11.888889 0.000000 0.000000 3.333333 0.000000 0.000000 0.000000 0.000000 0.000000 -27.000000 -2.891566 0.000000 0.000000 0.000000 0.000000 3.666667 -77.166664 -12.833333 -113.894737 1.052632 -4.210526 0.000000 0.000000 -32.349396 0.000000 0.000000 0.000000 48.975903 66.759033 30.000000 133.315796 2.894737 -17.894737 0.000000 -7.000000 -24.000000 -12.111111 0.000000 0.000000 18.888889 0.000000 0.000000 -10.529411 0.000000 0.000000 -12.111111 0.000000 0.000000 18.888889 0.000000 0.000000 -8.882353 0.000000 0.000000 
1.882353 40.058823 0.000000 -4.516807 -3.710084 3.189076 14.500000 0.000000 0.000000 5.000000 0.000000 0.000000 0.000000 0.000000 0.000000 -27.000000 -3.253012 0.000000 0.000000 0.000000 0.000000 3.375000 -77.437500 -12.562500 -114.131577 1.184211 -4.736842 0.000000 0.000000 -31.518072 0.000000 0.000000 0.000000 48.722893 67.228912 30.000000 133.105270 2.631579 -17.631578 0.000000 -7.000000 -24.000000 -13.000000 0.000000 0.000000 20.000000 0.000000 0.000000 -10.176471 0.000000 0.000000 -13.000000 0.000000 0.000000 20.000000 0.000000 0.000000 -8.294118 0.000000 0.000000 
2.117647 39.941177 0.000000 -4.792717 -4.075630 3.501400 17.111111 0.000000 0.000000 6.666667 0.000000 0.000000 0.000000 0.000000 0.000000 -27.000000 -3.614458 0.000000 0.000000 0.000000 0.000000 3.083333 -77.708336 -12.291667 -114.368423 1.315789 -5.263158 0.000000 0.000000 -30.686747 0.000000 0.000000 0.000000 48.469879 67.698792 30.000000 132.894730 2.368421 -17.368422 0.000000 -7.000000 -24.000000 -13.888889 0.000000 0.000000 21.111111 0.000000 0.000000 -9.823529 0.000000 0.000000 -13.888889 0.000000 0.000000 21.111111 0.000000 0.000000 -7.705883 0.000000 0.000000 
2.352941 39.823528 0.000000 -5.068627 -4.441176 3.813725 19.722221 0.000000 0.000000 8.333333 0.000000 0.000000 0.000000 0.000000 0.000000 -27.000000 -3.975904 0.000000 0.000000 0.000000 0.000000 2.791667 -77.979164 -12.020833 -114.605263 1.447368 -5.789474 0.000000 0.000000 -29.855421 0.000000 0.000000 0.000000 48.216869 68.168678 30.000000 132.684204 2.105263 -17.105263 0.000000 -7.000000 -24.000000 -14.777778 0.000000 0.000000 22.222221 0.000000 0.000000 -9.470589 0.000000 0.000000 -14.777778 0.000000 0.000000 22.222221 0.000000 0.000000 -7.117647 0.000000 0.000000 
